<?xml version="1.0" standalone="no"?>
<!DOCTYPE svg PUBLIC "-//W3C//DTD SVG 20010904//EN"
 "http://www.w3.org/TR/2001/REC-SVG-20010904/DTD/svg10.dtd">
<svg version="1.0" xmlns="http://www.w3.org/2000/svg"
 width="700.000000pt" height="700.000000pt" viewBox="0 0 700.000000 700.000000"
 preserveAspectRatio="xMidYMid meet">
<metadata>
Created by potrace 1.11, written by Peter Selinger 2001-2013
</metadata>
<g transform="translate(0.000000,700.000000) scale(0.100000,-0.100000)"
fill="#000000" stroke="none">
<path d="M2014 6819 c-40 -11 -90 -63 -105 -107 -26 -80 13 -173 87 -208 31
-15 74 -17 320 -17 252 0 284 -2 285 -16 0 -9 1 -628 2 -1375 l2 -1360 -30
-41 c-48 -66 -791 -1015 -843 -1076 -26 -31 -92 -114 -147 -185 -54 -71 -205
-266 -334 -434 -130 -168 -241 -312 -248 -320 -102 -124 -619 -804 -629 -827
-21 -50 -29 -100 -29 -193 0 -217 147 -410 364 -479 24 -8 841 -11 2792 -11
l2759 0 65 25 c209 78 343 283 330 505 -6 113 -25 167 -88 245 -23 28 -53 66
-67 85 -14 18 -53 69 -88 114 -34 45 -78 101 -97 126 -19 25 -88 113 -152 196
-129 165 -148 190 -208 269 -22 29 -98 128 -170 220 -71 92 -165 213 -208 268
-43 56 -84 109 -90 117 -7 8 -59 76 -116 150 -57 74 -119 151 -137 170 -18 19
-69 82 -114 140 -44 58 -91 119 -104 135 -13 17 -115 147 -226 290 -110 143
-206 267 -213 275 -89 111 -162 207 -171 224 -8 16 -11 396 -9 1386 0 751 2
1368 2 1371 1 3 128 6 284 6 316 -1 333 2 385 71 23 30 27 46 27 97 0 75 -29
125 -91 155 -40 20 -63 20 -1500 19 -840 0 -1472 -5 -1490 -10z m2041 -1764
c0 -1169 3 -1434 14 -1454 12 -21 457 -599 471 -611 3 -3 31 -39 62 -80 31
-41 109 -142 172 -223 64 -82 116 -150 116 -153 0 -2 -625 -4 -1390 -4 -765 0
-1390 2 -1390 5 0 3 52 72 115 153 63 81 126 161 138 177 13 17 144 184 291
373 146 188 272 355 278 370 9 20 12 402 14 1447 1 781 2 1423 3 1426 1 3 249
5 553 5 l552 -1 1 -1430z"/>
</g>
</svg>
